STARTFONT 2.1
FONT -FontForge-Helvetica-Bold-R-Normal--25-240-75-75-P-138-ISO10646-1
SIZE 24 75 75
FONTBOUNDINGBOX 29 29 -4 -5
COMMENT "Generated by fontforge, http://fontforge.sourceforge.net"
COMMENT "Copyright (c) 1985, 1987, 1989, 1990 Adobe Systems Incorporated.  All Rights Reserved.Helvetica is a trademark of Linotype AG and/or its subsidiaries."
STARTPROPERTIES 40
FOUNDRY "FontForge"
FAMILY_NAME "Helvetica"
WEIGHT_NAME "Bold"
SLANT "R"
SETWIDTH_NAME "Normal"
ADD_STYLE_NAME ""
PIXEL_SIZE 25
POINT_SIZE 240
RESOLUTION_X 75
RESOLUTION_Y 75
SPACING "P"
AVERAGE_WIDTH 138
CHARSET_REGISTRY "ISO10646"
CHARSET_ENCODING "1"
FONTNAME_REGISTRY ""
CHARSET_COLLECTIONS "ISO10646-1"
FONT_NAME "Helvetica-Bold"
FACE_NAME "Helvetica Bold"
COPYRIGHT "Copyright (c) 1985, 1987, 1989, 1990 Adobe Systems Incorporated.  All Rights Reserved.Helvetica is a trademark of Linotype AG and/or its subsidiaries."
FONT_VERSION "001.007"
FONT_ASCENT 20
FONT_DESCENT 5
UNDERLINE_POSITION -2
UNDERLINE_THICKNESS 2
X_HEIGHT 13
CAP_HEIGHT 17
RAW_ASCENT 800
RAW_DESCENT 200
NORM_SPACE 7
RELATIVE_WEIGHT 70
RELATIVE_SETWIDTH 50
SUPERSCRIPT_X 0
SUPERSCRIPT_Y 12
SUPERSCRIPT_SIZE 16
SUBSCRIPT_X 0
SUBSCRIPT_Y 3
SUBSCRIPT_SIZE 16
FIGURE_WIDTH 14
AVG_LOWERCASE_WIDTH 136
AVG_UPPERCASE_WIDTH 170
ENDPROPERTIES
CHARS 229
STARTCHAR space
ENCODING 32
SWIDTH 278 0
DWIDTH 7 0
BBX 1 1 0 0
BITMAP
00
ENDCHAR
STARTCHAR exclam
ENCODING 33
SWIDTH 333 0
DWIDTH 8 0
BBX 4 18 2 0
BITMAP
F0
F0
F0
F0
F0
F0
F0
70
70
70
60
60
60
00
F0
F0
F0
F0
ENDCHAR
STARTCHAR quotedbl
ENCODING 34
SWIDTH 474 0
DWIDTH 12 0
BBX 7 7 2 11
BITMAP
E6
E6
E6
E6
E6
E6
E6
ENDCHAR
STARTCHAR numbersign
ENCODING 35
SWIDTH 556 0
DWIDTH 14 0
BBX 12 17 1 0
BITMAP
1CE0
1CC0
1CC0
18C0
18C0
FFF0
FFF0
19C0
39C0
3980
FFF0
FFF0
3180
3380
3380
7380
7300
ENDCHAR
STARTCHAR dollar
ENCODING 36
SWIDTH 556 0
DWIDTH 14 0
BBX 12 22 1 -2
BITMAP
0600
0600
1F80
3FC0
7FE0
F6F0
E6F0
E600
F600
7E00
7F80
3FE0
07E0
06F0
0670
E670
F6F0
FFE0
7FC0
1F80
0600
0600
ENDCHAR
STARTCHAR percent
ENCODING 37
SWIDTH 889 0
DWIDTH 22 0
BBX 21 18 1 0
BITMAP
3C0300
7F0600
FF0600
E38C00
C38800
E39800
FF1000
7F3000
3C6000
0063C0
00C7E0
00CFF0
018C30
019C38
030C30
020FF0
0607E0
0403C0
ENDCHAR
STARTCHAR ampersand
ENCODING 38
SWIDTH 722 0
DWIDTH 18 0
BBX 16 18 1 0
BITMAP
07C0
0FE0
1FE0
1C70
1C70
1CF0
1FE0
0FC0
1F80
3FCE
7BCE
71FE
F0FC
F078
78FC
7FFE
3FFE
1F8F
ENDCHAR
STARTCHAR quotesingle
ENCODING 39
SWIDTH 238 0
DWIDTH 6 0
BBX 2 7 2 11
BITMAP
C0
C0
C0
C0
C0
C0
C0
ENDCHAR
STARTCHAR parenleft
ENCODING 40
SWIDTH 333 0
DWIDTH 8 0
BBX 7 23 1 -5
BITMAP
0E
1C
18
38
38
70
70
F0
F0
F0
F0
E0
F0
F0
F0
F0
70
70
78
38
1C
1C
0E
ENDCHAR
STARTCHAR parenright
ENCODING 41
SWIDTH 333 0
DWIDTH 8 0
BBX 6 23 1 -5
BITMAP
C0
E0
70
70
38
38
3C
1C
1C
1C
1C
1C
1C
1C
1C
1C
3C
38
38
70
70
E0
C0
ENDCHAR
STARTCHAR asterisk
ENCODING 42
SWIDTH 389 0
DWIDTH 10 0
BBX 8 8 1 10
BITMAP
18
18
9B
FF
7C
3C
6E
66
ENDCHAR
STARTCHAR plus
ENCODING 43
SWIDTH 584 0
DWIDTH 15 0
BBX 13 13 1 0
BITMAP
0700
0700
0700
0700
0700
FFF8
FFF8
FFF8
0700
0700
0700
0700
0700
ENDCHAR
STARTCHAR comma
ENCODING 44
SWIDTH 278 0
DWIDTH 7 0
BBX 3 8 2 -4
BITMAP
E0
E0
E0
E0
20
60
E0
80
ENDCHAR
STARTCHAR hyphen
ENCODING 45
SWIDTH 333 0
DWIDTH 8 0
BBX 7 3 1 5
BITMAP
FE
FE
FE
ENDCHAR
STARTCHAR period
ENCODING 46
SWIDTH 278 0
DWIDTH 7 0
BBX 3 4 2 0
BITMAP
E0
E0
E0
E0
ENDCHAR
STARTCHAR slash
ENCODING 47
SWIDTH 278 0
DWIDTH 7 0
BBX 9 18 -1 0
BITMAP
0380
0700
0700
0700
0E00
0E00
0E00
1C00
1C00
1C00
1800
3800
3800
3800
7000
7000
7000
E000
ENDCHAR
STARTCHAR zero
ENCODING 48
SWIDTH 556 0
DWIDTH 14 0
BBX 12 18 1 0
BITMAP
1F80
3FC0
7FE0
70E0
F0F0
F0F0
F0F0
E0F0
E0F0
E0F0
E0F0
F0F0
F0F0
F0F0
70E0
7FE0
3FC0
1F80
ENDCHAR
STARTCHAR one
ENCODING 49
SWIDTH 556 0
DWIDTH 14 0
BBX 7 18 2 0
BITMAP
06
0E
1E
FE
FE
0E
0E
0E
0E
0E
0E
0E
0E
0E
0E
0E
0E
0E
ENDCHAR
STARTCHAR two
ENCODING 50
SWIDTH 556 0
DWIDTH 14 0
BBX 12 18 1 0
BITMAP
1F00
3FC0
7FE0
F1E0
E0F0
E0F0
00F0
00E0
01E0
03C0
0F80
1F00
3E00
7800
F000
FFF0
FFF0
FFF0
ENDCHAR
STARTCHAR three
ENCODING 51
SWIDTH 556 0
DWIDTH 14 0
BBX 12 18 1 0
BITMAP
1F80
3FC0
7FE0
F1E0
E0E0
E0E0
00E0
07C0
0F80
0FE0
01F0
00F0
E0F0
E0F0
F0F0
FFE0
7FC0
1F00
ENDCHAR
STARTCHAR four
ENCODING 52
SWIDTH 556 0
DWIDTH 14 0
BBX 12 18 1 0
BITMAP
03C0
07C0
07C0
0FC0
0DC0
1DC0
39C0
31C0
71C0
61C0
E1C0
FFF0
FFF0
FFF0
01C0
01C0
01C0
01C0
ENDCHAR
STARTCHAR five
ENCODING 53
SWIDTH 556 0
DWIDTH 14 0
BBX 12 18 1 0
BITMAP
7FE0
7FE0
7FE0
7000
7000
7000
6F80
7FC0
FFE0
F1F0
00F0
00F0
00F0
E0F0
F1E0
FFE0
7FC0
1F00
ENDCHAR
STARTCHAR six
ENCODING 54
SWIDTH 556 0
DWIDTH 14 0
BBX 12 18 1 0
BITMAP
0F80
3FC0
7FE0
70E0
F070
E000
E700
FFC0
FFE0
F1F0
F0F0
E0F0
E0F0
F0F0
70E0
7FE0
3FC0
1F80
ENDCHAR
STARTCHAR seven
ENCODING 55
SWIDTH 556 0
DWIDTH 14 0
BBX 12 18 1 0
BITMAP
FFF0
FFF0
FFF0
00F0
01E0
01C0
0380
0780
0700
0F00
0E00
0E00
1E00
1C00
1C00
3C00
3C00
3C00
ENDCHAR
STARTCHAR eight
ENCODING 56
SWIDTH 556 0
DWIDTH 14 0
BBX 12 18 1 0
BITMAP
1F80
3FC0
7FE0
70E0
F0E0
F0E0
79E0
3FC0
3FC0
7FE0
F0F0
F0F0
E0F0
F0F0
F0F0
7FE0
7FC0
1F80
ENDCHAR
STARTCHAR nine
ENCODING 57
SWIDTH 556 0
DWIDTH 14 0
BBX 12 18 1 0
BITMAP
1F00
3FC0
7FE0
F0E0
E0F0
E0F0
E0F0
F0F0
F1F0
7FF0
7F70
1E70
00F0
F0E0
F1E0
7FC0
3FC0
1F00
ENDCHAR
STARTCHAR colon
ENCODING 58
SWIDTH 333 0
DWIDTH 8 0
BBX 4 13 2 0
BITMAP
F0
F0
F0
F0
00
00
00
00
00
F0
F0
F0
F0
ENDCHAR
STARTCHAR semicolon
ENCODING 59
SWIDTH 333 0
DWIDTH 8 0
BBX 4 17 2 -4
BITMAP
F0
F0
F0
F0
00
00
00
00
00
F0
F0
F0
F0
30
30
60
C0
ENDCHAR
STARTCHAR less
ENCODING 60
SWIDTH 584 0
DWIDTH 15 0
BBX 13 13 1 0
BITMAP
0008
0038
01F8
07E0
1F80
FE00
F000
FC00
3F00
0FC0
01F8
0078
0018
ENDCHAR
STARTCHAR equal
ENCODING 61
SWIDTH 584 0
DWIDTH 15 0
BBX 13 9 1 2
BITMAP
FFF8
FFF8
FFF8
0000
0000
0000
FFF8
FFF8
FFF8
ENDCHAR
STARTCHAR greater
ENCODING 62
SWIDTH 584 0
DWIDTH 15 0
BBX 13 12 1 0
BITMAP
E000
F800
7F00
0FC0
03F0
00F8
01F8
07E0
3F00
FC00
F000
8000
ENDCHAR
STARTCHAR question
ENCODING 63
SWIDTH 611 0
DWIDTH 15 0
BBX 12 18 2 0
BITMAP
1F80
7FC0
FFE0
F1F0
E0F0
E0F0
00F0
01E0
03C0
0780
0F00
0E00
0E00
0000
0F00
0F00
0F00
0F00
ENDCHAR
STARTCHAR at
ENCODING 64
SWIDTH 975 0
DWIDTH 24 0
BBX 18 18 3 0
BITMAP
01F800
0FFE00
1E0700
380380
71E7C0
63FEC0
E7BCC0
EE1CC0
CE1CC0
CE1CC0
EE18C0
EE3980
67FF00
77DE00
380180
1E0700
0FFE00
03F800
ENDCHAR
STARTCHAR A
ENCODING 65
SWIDTH 722 0
DWIDTH 18 0
BBX 16 18 1 0
BITMAP
03C0
07E0
07E0
07E0
0FF0
0F70
0E78
1E78
1E78
1C3C
3C3C
3FFC
7FFE
7FFE
781E
F00F
F00F
F00F
ENDCHAR
STARTCHAR B
ENCODING 66
SWIDTH 722 0
DWIDTH 18 0
BBX 15 18 2 0
BITMAP
FFE0
FFF8
FFFC
E03C
E03C
E01C
E03C
FFF8
FFF8
FFFC
E03C
E01E
E01E
E01E
E03C
FFFC
FFF8
FFE0
ENDCHAR
STARTCHAR C
ENCODING 67
SWIDTH 722 0
DWIDTH 18 0
BBX 16 18 1 0
BITMAP
07E0
0FF8
3FFE
3E3E
780F
780F
F000
F000
F000
F000
F000
F000
780F
780F
7E3E
3FFC
1FF8
07E0
ENDCHAR
STARTCHAR D
ENCODING 68
SWIDTH 722 0
DWIDTH 18 0
BBX 15 18 2 0
BITMAP
FFE0
FFF8
FFF8
F07C
F03C
F01E
F01E
F01E
F01E
F01E
F01E
F01E
F01E
F03C
F07C
FFF8
FFF0
FFC0
ENDCHAR
STARTCHAR E
ENCODING 69
SWIDTH 667 0
DWIDTH 17 0
BBX 14 18 2 0
BITMAP
FFF8
FFF8
FFF8
F000
F000
F000
F000
FFF0
FFF0
FFF0
F000
F000
F000
F000
F000
FFFC
FFFC
FFFC
ENDCHAR
STARTCHAR F
ENCODING 70
SWIDTH 611 0
DWIDTH 15 0
BBX 13 18 2 0
BITMAP
FFF8
FFF8
FFF8
F000
F000
F000
F000
FFF0
FFF0
FFF0
F000
F000
F000
F000
F000
F000
F000
F000
ENDCHAR
STARTCHAR G
ENCODING 71
SWIDTH 778 0
DWIDTH 19 0
BBX 17 18 1 0
BITMAP
03F000
0FFC00
3FFE00
3E1F00
780F00
780780
F00000
F00000
F07F80
F07F80
F07F80
F00780
780780
7C0F80
3E1F80
3FFF80
0FFB80
07E380
ENDCHAR
STARTCHAR H
ENCODING 72
SWIDTH 722 0
DWIDTH 18 0
BBX 14 18 2 0
BITMAP
F01C
F01C
F01C
F01C
F01C
F01C
F01C
FFFC
FFFC
FFFC
F01C
F01C
F01C
F01C
F01C
F01C
F01C
F01C
ENDCHAR
STARTCHAR I
ENCODING 73
SWIDTH 278 0
DWIDTH 7 0
BBX 3 18 2 0
BITMAP
E0
E0
E0
E0
E0
E0
E0
E0
E0
E0
E0
E0
E0
E0
E0
E0
E0
E0
ENDCHAR
STARTCHAR J
ENCODING 74
SWIDTH 556 0
DWIDTH 14 0
BBX 11 18 1 0
BITMAP
01E0
01E0
01E0
01E0
01E0
01E0
01E0
01E0
01E0
01E0
01E0
E1E0
E1E0
E1E0
F1E0
FFC0
7FC0
3F00
ENDCHAR
STARTCHAR K
ENCODING 75
SWIDTH 722 0
DWIDTH 18 0
BBX 16 18 2 0
BITMAP
F03E
F07C
F0F8
F1F0
F1E0
F3C0
F780
FF00
FF80
FFC0
FBE0
F1E0
F1F0
F0F8
F07C
F07C
F03E
F01F
ENDCHAR
STARTCHAR L
ENCODING 76
SWIDTH 611 0
DWIDTH 15 0
BBX 13 18 2 0
BITMAP
F000
F000
F000
F000
F000
F000
F000
F000
F000
F000
F000
F000
F000
F000
F000
FFF8
FFF8
FFF8
ENDCHAR
STARTCHAR M
ENCODING 77
SWIDTH 833 0
DWIDTH 21 0
BBX 17 18 2 0
BITMAP
F80F80
FC1F80
FC1F80
FC1B80
EC1B80
EC3B80
EE3B80
EE3B80
EE3380
E63380
E77380
E77380
E76380
E36380
E3E380
E3E380
E3E380
E3C380
ENDCHAR
STARTCHAR N
ENCODING 78
SWIDTH 722 0
DWIDTH 18 0
BBX 14 18 2 0
BITMAP
F01C
F81C
F81C
FC1C
FC1C
FE1C
EE1C
E71C
E79C
E39C
E3DC
E1DC
E1FC
E0FC
E07C
E07C
E03C
E03C
ENDCHAR
STARTCHAR O
ENCODING 79
SWIDTH 778 0
DWIDTH 19 0
BBX 17 18 1 0
BITMAP
03F000
0FFC00
3FFE00
3E3F00
780F80
780780
F00780
F00780
F00380
F00380
F00380
F00780
780780
780F00
3E1F00
3FFE00
0FFC00
03F000
ENDCHAR
STARTCHAR P
ENCODING 80
SWIDTH 667 0
DWIDTH 17 0
BBX 14 18 2 0
BITMAP
FFE0
FFF0
FFF8
F078
F03C
F03C
F03C
F078
FFF8
FFF0
FFE0
F000
F000
F000
F000
F000
F000
F000
ENDCHAR
STARTCHAR Q
ENCODING 81
SWIDTH 778 0
DWIDTH 19 0
BBX 17 19 1 -1
BITMAP
03F000
0FFC00
3FFE00
3E3F00
780F80
780780
F00780
F00780
F00380
F00380
F00780
F03780
787F80
783F00
3E3F00
3FFF00
0FFF80
03F380
000100
ENDCHAR
STARTCHAR R
ENCODING 82
SWIDTH 722 0
DWIDTH 18 0
BBX 15 18 2 0
BITMAP
FFF0
FFF8
FFFC
F03C
F01E
F01E
F01C
F03C
FFF8
FFF0
FFF8
F03C
F03C
F03C
F03C
F03C
F03C
F01E
ENDCHAR
STARTCHAR S
ENCODING 83
SWIDTH 667 0
DWIDTH 17 0
BBX 15 18 1 0
BITMAP
0FC0
3FF0
7FF8
787C
F03C
F01C
F800
7F80
7FF0
1FFC
01FC
003E
F01E
F01E
F83C
7FFC
3FF8
0FE0
ENDCHAR
STARTCHAR T
ENCODING 84
SWIDTH 611 0
DWIDTH 15 0
BBX 15 18 0 0
BITMAP
FFFE
FFFE
FFFE
03C0
03C0
03C0
03C0
03C0
03C0
03C0
03C0
03C0
03C0
03C0
03C0
03C0
03C0
03C0
ENDCHAR
STARTCHAR U
ENCODING 85
SWIDTH 722 0
DWIDTH 18 0
BBX 14 18 2 0
BITMAP
F03C
F03C
F03C
F03C
F03C
F03C
F03C
F03C
F03C
F03C
F03C
F03C
F03C
F03C
F87C
7FF8
3FF0
0FC0
ENDCHAR
STARTCHAR V
ENCODING 86
SWIDTH 667 0
DWIDTH 17 0
BBX 15 18 1 0
BITMAP
F01E
F01E
F01C
703C
783C
7838
3878
3C78
3C70
1C70
1CF0
1EE0
0EE0
0FE0
0FC0
07C0
07C0
0780
ENDCHAR
STARTCHAR W
ENCODING 87
SWIDTH 944 0
DWIDTH 24 0
BBX 22 18 1 0
BITMAP
F0783C
F0783C
F0F83C
F0FC38
78FC78
78FC78
78DC70
79DC70
39CEF0
3DCEF0
3DCEE0
1D8EE0
1F8EE0
1F87C0
1F87C0
0F87C0
0F07C0
0F0780
ENDCHAR
STARTCHAR X
ENCODING 88
SWIDTH 667 0
DWIDTH 17 0
BBX 15 18 1 0
BITMAP
F03E
783C
7C78
3C78
3EF0
1EE0
0FE0
0FC0
07C0
07C0
0FE0
1FE0
1EF0
3CF8
3C78
787C
F83C
F03E
ENDCHAR
STARTCHAR Y
ENCODING 89
SWIDTH 667 0
DWIDTH 17 0
BBX 15 18 1 0
BITMAP
F01E
F83E
783C
7878
3C78
3C70
1EF0
1EE0
0FE0
07C0
07C0
0380
0380
0380
0380
0380
0380
0380
ENDCHAR
STARTCHAR Z
ENCODING 90
SWIDTH 611 0
DWIDTH 15 0
BBX 14 18 1 0
BITMAP
FFFC
FFFC
FFFC
0078
00F0
01F0
03E0
07C0
0780
0F00
1F00
3E00
7C00
7800
F000
FFFC
FFFC
FFFC
ENDCHAR
STARTCHAR bracketleft
ENCODING 91
SWIDTH 333 0
DWIDTH 8 0
BBX 6 23 2 -5
BITMAP
FC
FC
E0
E0
E0
E0
E0
E0
E0
E0
E0
E0
E0
E0
E0
E0
E0
E0
E0
E0
E0
FC
FC
ENDCHAR
STARTCHAR backslash
ENCODING 92
SWIDTH 278 0
DWIDTH 7 0
BBX 9 18 -1 0
BITMAP
E000
7000
7000
7000
3800
3800
3800
1800
1C00
1C00
1C00
0E00
0E00
0E00
0700
0700
0700
0380
ENDCHAR
STARTCHAR bracketright
ENCODING 93
SWIDTH 333 0
DWIDTH 8 0
BBX 6 23 1 -5
BITMAP
FC
FC
1C
1C
1C
1C
1C
1C
1C
1C
1C
1C
1C
1C
1C
1C
1C
1C
1C
1C
1C
FC
FC
ENDCHAR
STARTCHAR asciicircum
ENCODING 94
SWIDTH 584 0
DWIDTH 15 0
BBX 11 9 2 9
BITMAP
0E00
1E00
1F00
3B00
3B80
7180
71C0
E1C0
E0E0
ENDCHAR
STARTCHAR underscore
ENCODING 95
SWIDTH 556 0
DWIDTH 14 0
BBX 14 1 0 -3
BITMAP
FFFC
ENDCHAR
STARTCHAR grave
ENCODING 96
SWIDTH 333 0
DWIDTH 8 0
BBX 5 4 0 15
BITMAP
E0
70
38
18
ENDCHAR
STARTCHAR a
ENCODING 97
SWIDTH 556 0
DWIDTH 14 0
BBX 12 14 1 0
BITMAP
1F80
7FE0
7FE0
F0E0
F0E0
01E0
3FE0
7EE0
F0E0
E0E0
E1E0
FFE0
FFF0
3CF0
ENDCHAR
STARTCHAR b
ENCODING 98
SWIDTH 611 0
DWIDTH 15 0
BBX 12 18 2 0
BITMAP
E000
E000
E000
E000
E780
EFE0
FFE0
F1F0
E0F0
E070
E070
E070
E070
E0F0
F0F0
FFE0
FFE0
E780
ENDCHAR
STARTCHAR c
ENCODING 99
SWIDTH 556 0
DWIDTH 14 0
BBX 12 14 1 0
BITMAP
0F80
3FE0
7FE0
78F0
F0F0
F000
E000
E000
F000
F0F0
F0F0
7FE0
3FC0
1F80
ENDCHAR
STARTCHAR d
ENCODING 100
SWIDTH 611 0
DWIDTH 15 0
BBX 13 18 1 0
BITMAP
0078
0078
0078
0078
1F78
3FF8
7FF8
F8F8
F078
F078
E078
E078
F078
F078
F8F8
7FF8
3FF8
1F78
ENDCHAR
STARTCHAR e
ENCODING 101
SWIDTH 556 0
DWIDTH 14 0
BBX 12 14 1 0
BITMAP
1F80
3FC0
7FE0
F0F0
E0F0
E070
FFF0
FFF0
E000
E000
F0F0
7FE0
3FC0
1F80
ENDCHAR
STARTCHAR f
ENCODING 102
SWIDTH 333 0
DWIDTH 8 0
BBX 8 18 0 0
BITMAP
0F
1F
3F
3C
FF
FF
3F
3C
3C
3C
3C
3C
3C
3C
3C
3C
3C
3C
ENDCHAR
STARTCHAR g
ENCODING 103
SWIDTH 611 0
DWIDTH 15 0
BBX 13 19 1 -5
BITMAP
1F78
3FF8
7FF8
78F8
F078
F078
F078
F078
F078
F078
78F8
7FF8
3FF8
1F78
0078
F078
7FF0
7FE0
1F80
ENDCHAR
STARTCHAR h
ENCODING 104
SWIDTH 611 0
DWIDTH 15 0
BBX 12 18 2 0
BITMAP
E000
E000
E000
E000
E780
EFE0
FFE0
F1F0
E0F0
E0F0
E0F0
E0F0
E0F0
E0F0
E0F0
E0F0
E0F0
E0F0
ENDCHAR
STARTCHAR i
ENCODING 105
SWIDTH 278 0
DWIDTH 7 0
BBX 3 18 2 0
BITMAP
E0
E0
E0
00
E0
E0
E0
E0
E0
E0
E0
E0
E0
E0
E0
E0
E0
E0
ENDCHAR
STARTCHAR j
ENCODING 106
SWIDTH 278 0
DWIDTH 7 0
BBX 5 23 0 -5
BITMAP
38
38
38
00
38
38
38
38
38
38
38
38
38
38
38
38
38
38
38
38
F8
F8
F0
ENDCHAR
STARTCHAR k
ENCODING 107
SWIDTH 556 0
DWIDTH 14 0
BBX 12 18 2 0
BITMAP
E000
E000
E000
E000
E1E0
E3E0
E3C0
E780
EF00
FE00
FF00
FF00
F780
E7C0
E3C0
E3E0
E1E0
E0F0
ENDCHAR
STARTCHAR l
ENCODING 108
SWIDTH 278 0
DWIDTH 7 0
BBX 3 18 2 0
BITMAP
E0
E0
E0
E0
E0
E0
E0
E0
E0
E0
E0
E0
E0
E0
E0
E0
E0
E0
ENDCHAR
STARTCHAR m
ENCODING 109
SWIDTH 889 0
DWIDTH 22 0
BBX 19 14 2 0
BITMAP
E78F00
EFDFC0
FFFFC0
F1F3E0
E1E1E0
E1E1E0
E1E1E0
E1E1E0
E1E1E0
E1E1E0
E1E1E0
E1E1E0
E1E1E0
E1E1E0
ENDCHAR
STARTCHAR n
ENCODING 110
SWIDTH 611 0
DWIDTH 15 0
BBX 12 14 2 0
BITMAP
E780
EFE0
FFE0
F1F0
E0F0
E0F0
E0F0
E0F0
E0F0
E0F0
E0F0
E0F0
E0F0
E0F0
ENDCHAR
STARTCHAR o
ENCODING 111
SWIDTH 611 0
DWIDTH 15 0
BBX 13 14 1 0
BITMAP
0FC0
3FE0
7FF0
78F8
F078
F038
E038
E038
F038
F078
7878
7FF0
3FE0
0F80
ENDCHAR
STARTCHAR p
ENCODING 112
SWIDTH 611 0
DWIDTH 15 0
BBX 12 19 2 -5
BITMAP
E780
EFE0
FFE0
F1F0
E0F0
E070
E070
E070
E070
E0F0
F0F0
FFE0
FFE0
E780
E000
E000
E000
E000
E000
ENDCHAR
STARTCHAR q
ENCODING 113
SWIDTH 611 0
DWIDTH 15 0
BBX 13 19 1 -5
BITMAP
1F78
3FF8
7FF8
78F8
F078
F078
E078
E078
F078
F078
F8F8
7FF8
3FF8
1F78
0078
0078
0078
0078
0078
ENDCHAR
STARTCHAR r
ENCODING 114
SWIDTH 389 0
DWIDTH 10 0
BBX 7 14 2 0
BITMAP
E6
EE
FE
FE
F0
E0
E0
E0
E0
E0
E0
E0
E0
E0
ENDCHAR
STARTCHAR s
ENCODING 115
SWIDTH 556 0
DWIDTH 14 0
BBX 12 14 1 0
BITMAP
1F80
7FC0
7FE0
F0F0
F000
FF00
7FE0
1FF0
01F0
E0F0
F0F0
FFE0
7FE0
1F80
ENDCHAR
STARTCHAR t
ENCODING 116
SWIDTH 333 0
DWIDTH 8 0
BBX 8 18 0 0
BITMAP
3C
3C
3C
3C
FF
FF
3F
3C
3C
3C
3C
3C
3C
3C
3C
3F
3F
1F
ENDCHAR
STARTCHAR u
ENCODING 117
SWIDTH 611 0
DWIDTH 15 0
BBX 12 14 2 0
BITMAP
E0F0
E0F0
E0F0
E0F0
E0F0
E0F0
E0F0
E0F0
E0F0
E0F0
F1F0
FFF0
7FF0
3CF0
ENDCHAR
STARTCHAR v
ENCODING 118
SWIDTH 556 0
DWIDTH 14 0
BBX 13 14 0 0
BITMAP
F038
7878
7878
7870
3870
3CF0
1CE0
1CE0
1CE0
0FC0
0FC0
0FC0
0780
0780
ENDCHAR
STARTCHAR w
ENCODING 119
SWIDTH 778 0
DWIDTH 19 0
BBX 19 14 0 0
BITMAP
F0F0E0
70F1E0
70F1E0
79F1C0
79B1C0
39B9C0
39BB80
3DBB80
1F9B80
1F1B80
1F1F00
1F1F00
0F1F00
0F0F00
ENDCHAR
STARTCHAR x
ENCODING 120
SWIDTH 556 0
DWIDTH 14 0
BBX 12 14 1 0
BITMAP
F0F0
F9E0
79E0
3FC0
3FC0
1F80
0F00
0F00
1F80
3FC0
3FC0
79E0
F1F0
F0F0
ENDCHAR
STARTCHAR y
ENCODING 121
SWIDTH 556 0
DWIDTH 14 0
BBX 13 19 0 -5
BITMAP
F038
7878
7878
7870
3870
3CF0
3CE0
1CE0
1FE0
0FC0
0FC0
0FC0
0780
0780
0780
0700
3F00
3E00
3C00
ENDCHAR
STARTCHAR z
ENCODING 122
SWIDTH 500 0
DWIDTH 13 0
BBX 12 14 0 0
BITMAP
7FF0
7FF0
7FF0
01E0
03C0
07C0
0F80
0F00
1E00
3C00
7C00
FFF0
FFF0
FFF0
ENDCHAR
STARTCHAR braceleft
ENCODING 123
SWIDTH 389 0
DWIDTH 10 0
BBX 8 23 1 -5
BITMAP
0F
1F
1C
1C
1C
1C
1C
1C
1C
38
F0
F0
78
3C
1C
1C
1C
1C
1C
1C
1C
1F
0F
ENDCHAR
STARTCHAR bar
ENCODING 124
SWIDTH 280 0
DWIDTH 7 0
BBX 3 18 2 0
BITMAP
E0
E0
E0
E0
E0
E0
E0
E0
E0
E0
E0
E0
E0
E0
E0
E0
E0
E0
ENDCHAR
STARTCHAR braceright
ENCODING 125
SWIDTH 389 0
DWIDTH 10 0
BBX 8 23 1 -5
BITMAP
F0
F8
38
38
38
38
38
38
38
3C
1F
0F
1E
38
38
38
38
38
38
38
38
F8
E0
ENDCHAR
STARTCHAR asciitilde
ENCODING 126
SWIDTH 584 0
DWIDTH 15 0
BBX 11 4 2 4
BITMAP
FC60
FFE0
CFE0
8380
ENDCHAR
STARTCHAR exclamdown
ENCODING 161
SWIDTH 333 0
DWIDTH 8 0
BBX 4 19 2 -5
BITMAP
F0
F0
F0
F0
00
00
60
60
60
70
70
70
F0
F0
F0
F0
F0
F0
F0
ENDCHAR
STARTCHAR cent
ENCODING 162
SWIDTH 556 0
DWIDTH 14 0
BBX 12 19 1 -3
BITMAP
0080
0080
0F80
3FC0
7FE0
7BF0
F3F0
F200
E200
E600
F400
F4F0
FCF0
7FE0
3FC0
1F80
1800
1000
1000
ENDCHAR
STARTCHAR sterling
ENCODING 163
SWIDTH 556 0
DWIDTH 14 0
BBX 12 18 1 0
BITMAP
1F80
3FE0
7FE0
F0F0
F070
F070
F000
7800
FF00
3F00
3C00
1C00
3800
3800
7410
FFF0
FFF0
43E0
ENDCHAR
STARTCHAR currency
ENCODING 164
SWIDTH 556 0
DWIDTH 14 0
BBX 14 14 0 2
BITMAP
4000
E018
F7BC
7FF8
3FF0
3870
3070
3030
3870
3870
3FF0
7FF8
E21C
4008
ENDCHAR
STARTCHAR yen
ENCODING 165
SWIDTH 556 0
DWIDTH 14 0
BBX 14 18 0 0
BITMAP
F03C
7038
7878
3870
3CF0
1CE0
1EE0
0FC0
FFFC
0780
0780
FFFC
07FC
0780
0780
0780
0780
0780
ENDCHAR
STARTCHAR brokenbar
ENCODING 166
SWIDTH 280 0
DWIDTH 7 0
BBX 3 18 2 0
BITMAP
E0
E0
E0
E0
E0
E0
E0
00
00
00
00
E0
E0
E0
E0
E0
E0
E0
ENDCHAR
STARTCHAR section
ENCODING 167
SWIDTH 556 0
DWIDTH 14 0
BBX 12 23 1 -5
BITMAP
0F80
3FC0
7FE0
71E0
70E0
7800
7E00
3F80
7FE0
E3F0
E0F0
F070
FC70
7FE0
3FC0
0FC0
03E0
00E0
70E0
79E0
7FC0
3F80
0E00
ENDCHAR
STARTCHAR dieresis
ENCODING 168
SWIDTH 333 0
DWIDTH 8 0
BBX 8 3 0 15
BITMAP
E7
E7
E7
ENDCHAR
STARTCHAR copyright
ENCODING 169
SWIDTH 737 0
DWIDTH 18 0
BBX 19 18 0 0
BITMAP
03F000
0FFE00
3F1F00
380780
71F3C0
E3F9C0
E71CC0
E60CE0
CE00E0
CE00E0
E60CE0
E71CC0
E3F9C0
71F3C0
380780
3E1F00
0FFE00
03F000
ENDCHAR
STARTCHAR ordfeminine
ENCODING 170
SWIDTH 370 0
DWIDTH 9 0
BBX 7 11 1 7
BITMAP
7C
FE
C6
7E
E6
C6
FE
F6
00
FE
FE
ENDCHAR
STARTCHAR guillemotleft
ENCODING 171
SWIDTH 556 0
DWIDTH 14 0
BBX 10 10 2 2
BITMAP
1040
10C0
71C0
F380
C300
C300
F380
71C0
30C0
1040
ENDCHAR
STARTCHAR logicalnot
ENCODING 172
SWIDTH 584 0
DWIDTH 15 0
BBX 13 8 1 3
BITMAP
FFF8
FFF8
FFF8
0038
0038
0038
0038
0038
ENDCHAR
STARTCHAR registered
ENCODING 174
SWIDTH 737 0
DWIDTH 18 0
BBX 19 18 0 0
BITMAP
03F000
0FFE00
1F1F00
380780
77E3C0
E7F9C0
E718C0
E718E0
C7F8E0
C7E0E0
E770E0
E730C0
E739C0
771BC0
380780
3E1F00
0FFE00
03F000
ENDCHAR
STARTCHAR macron
ENCODING 175
SWIDTH 333 0
DWIDTH 8 0
BBX 8 2 0 15
BITMAP
FF
FF
ENDCHAR
STARTCHAR degree
ENCODING 176
SWIDTH 400 0
DWIDTH 10 0
BBX 8 7 1 11
BITMAP
3C
7E
42
C3
42
66
3C
ENDCHAR
STARTCHAR plusminus
ENCODING 177
SWIDTH 584 0
DWIDTH 15 0
BBX 13 13 1 0
BITMAP
0700
0700
0700
FFF8
FFF8
FFF8
0700
0700
0700
0000
FFF8
FFF8
FFF8
ENDCHAR
STARTCHAR twosuperior
ENCODING 178
SWIDTH 333 0
DWIDTH 8 0
BBX 8 11 0 7
BITMAP
3C
7F
67
E3
07
0F
1E
38
70
7F
FF
ENDCHAR
STARTCHAR threesuperior
ENCODING 179
SWIDTH 333 0
DWIDTH 8 0
BBX 8 11 0 7
BITMAP
3C
7F
E7
07
1E
1F
03
C3
E7
7E
3C
ENDCHAR
STARTCHAR acute
ENCODING 180
SWIDTH 333 0
DWIDTH 8 0
BBX 6 4 3 15
BITMAP
3C
78
70
E0
ENDCHAR
STARTCHAR mu
ENCODING 181
SWIDTH 611 0
DWIDTH 15 0
BBX 12 19 2 -5
BITMAP
E0F0
E0F0
E0F0
E0F0
E0F0
E0F0
E0F0
E0F0
E0F0
E0F0
F1F0
FFF0
FFF0
FEF0
E000
E000
E000
E000
E000
ENDCHAR
STARTCHAR paragraph
ENCODING 182
SWIDTH 556 0
DWIDTH 14 0
BBX 13 22 0 -4
BITMAP
1FF8
7FF8
FF18
FF18
FF18
FF18
FF18
7F18
1F18
0718
0718
0718
0718
0718
0718
0718
0718
0718
0718
0718
0718
0718
ENDCHAR
STARTCHAR periodcentered
ENCODING 183
SWIDTH 278 0
DWIDTH 7 0
BBX 3 4 2 4
BITMAP
E0
E0
E0
E0
ENDCHAR
STARTCHAR cedilla
ENCODING 184
SWIDTH 333 0
DWIDTH 8 0
BBX 6 5 0 -5
BITMAP
30
38
0C
0C
FC
ENDCHAR
STARTCHAR onesuperior
ENCODING 185
SWIDTH 333 0
DWIDTH 8 0
BBX 5 11 1 7
BITMAP
18
38
F8
F8
38
38
38
38
38
38
38
ENDCHAR
STARTCHAR ordmasculine
ENCODING 186
SWIDTH 365 0
DWIDTH 9 0
BBX 9 11 0 7
BITMAP
3E00
7F00
E380
E380
E180
E380
7F00
3E00
0000
7F00
7F00
ENDCHAR
STARTCHAR guillemotright
ENCODING 187
SWIDTH 556 0
DWIDTH 14 0
BBX 10 10 2 2
BITMAP
8400
C200
E380
73C0
31C0
31C0
73C0
E380
C200
8400
ENDCHAR
STARTCHAR onequarter
ENCODING 188
SWIDTH 834 0
DWIDTH 21 0
BBX 18 18 1 0
BITMAP
180600
380C00
F80C00
381800
383000
383000
386000
386380
38C780
398580
398D80
031980
031980
063180
0C3FC0
0C3FC0
180180
180180
ENDCHAR
STARTCHAR onehalf
ENCODING 189
SWIDTH 834 0
DWIDTH 21 0
BBX 19 18 1 0
BITMAP
180600
380C00
F80C00
381800
383000
383000
386000
386780
38CFC0
399CE0
3998E0
0300E0
0301C0
060380
0C0700
0C0E00
181FE0
181FE0
ENDCHAR
STARTCHAR threequarters
ENCODING 190
SWIDTH 834 0
DWIDTH 21 0
BBX 20 18 0 0
BITMAP
3E0180
7F0300
630300
070600
1E0400
1F0C00
031800
E318E0
6331E0
7F33E0
3E63E0
00C6E0
00C4E0
018CE0
018FF0
030FF0
0600E0
0600E0
ENDCHAR
STARTCHAR questiondown
ENCODING 191
SWIDTH 611 0
DWIDTH 15 0
BBX 13 19 1 -5
BITMAP
0700
0700
0700
0700
0000
0700
0700
0700
0F00
3E00
7C00
7800
F000
F078
F078
78F0
7FF0
3FE0
0F80
ENDCHAR
STARTCHAR Agrave
ENCODING 192
SWIDTH 722 0
DWIDTH 18 0
BBX 16 24 1 0
BITMAP
1E00
0F00
0780
0380
0000
0000
03C0
07E0
07E0
07E0
0FF0
0F70
0E78
1E78
1E78
1C3C
3C3C
3FFC
7FFE
7FFE
781E
F00F
F00F
F00F
ENDCHAR
STARTCHAR Aacute
ENCODING 193
SWIDTH 722 0
DWIDTH 18 0
BBX 16 24 1 0
BITMAP
0078
00F0
00E0
01C0
0000
0000
03C0
07E0
07E0
07E0
0FF0
0F70
0E78
1E78
1E78
1C3C
3C3C
3FFC
7FFE
7FFE
781E
F00F
F00F
F00F
ENDCHAR
STARTCHAR Acircumflex
ENCODING 194
SWIDTH 722 0
DWIDTH 18 0
BBX 16 24 1 0
BITMAP
03C0
03E0
07E0
0E70
0000
0000
03C0
07E0
07E0
07E0
0FF0
0F70
0E78
1E78
1E78
1C3C
3C3C
3FFC
7FFE
7FFE
781E
F00F
F00F
F00F
ENDCHAR
STARTCHAR Atilde
ENCODING 195
SWIDTH 722 0
DWIDTH 18 0
BBX 16 23 1 0
BITMAP
0790
0FF0
08E0
0000
0000
03C0
07E0
07E0
07E0
0FF0
0F70
0E78
1E78
1E78
1C3C
3C3C
3FFC
7FFE
7FFE
781E
F00F
F00F
F00F
ENDCHAR
STARTCHAR Adieresis
ENCODING 196
SWIDTH 722 0
DWIDTH 18 0
BBX 16 23 1 0
BITMAP
0E70
0E70
0E70
0000
0000
03C0
07E0
07E0
07E0
0FF0
0F70
0E78
1E78
1E78
1C3C
3C3C
3FFC
7FFE
7FFE
781E
F00F
F00F
F00F
ENDCHAR
STARTCHAR Aring
ENCODING 197
SWIDTH 722 0
DWIDTH 18 0
BBX 16 24 1 0
BITMAP
01C0
0360
0660
0360
03C0
0000
03C0
07E0
07E0
07E0
0FF0
0F70
0E78
1E78
1E78
1C3C
3C3C
3FFC
7FFE
7FFE
781E
F00F
F00F
F00F
ENDCHAR
STARTCHAR AE
ENCODING 198
SWIDTH 1000 0
DWIDTH 25 0
BBX 24 18 0 0
BITMAP
03FFFF
03FFFF
03FFFF
079C00
079C00
071C00
0F1C00
0F1FFE
0E1FFE
1E1FFE
1E1C00
3FFC00
3FFC00
3FFC00
781C00
781FFF
781FFF
F01FFF
ENDCHAR
STARTCHAR Ccedilla
ENCODING 199
SWIDTH 722 0
DWIDTH 18 0
BBX 16 23 1 -5
BITMAP
07E0
0FF8
3FFE
3E3E
780F
780F
F000
F000
F000
F000
F000
F000
780F
780F
7E3E
3FFC
1FF8
07E0
0300
03C0
00C0
00C0
07C0
ENDCHAR
STARTCHAR Egrave
ENCODING 200
SWIDTH 667 0
DWIDTH 17 0
BBX 14 24 2 0
BITMAP
3C00
1C00
0E00
0600
0000
0000
FFF8
FFF8
FFF8
F000
F000
F000
F000
FFF0
FFF0
FFF0
F000
F000
F000
F000
F000
FFFC
FFFC
FFFC
ENDCHAR
STARTCHAR Eacute
ENCODING 201
SWIDTH 667 0
DWIDTH 17 0
BBX 14 24 2 0
BITMAP
01E0
03C0
0380
0700
0000
0000
FFF8
FFF8
FFF8
F000
F000
F000
F000
FFF0
FFF0
FFF0
F000
F000
F000
F000
F000
FFFC
FFFC
FFFC
ENDCHAR
STARTCHAR Ecircumflex
ENCODING 202
SWIDTH 667 0
DWIDTH 17 0
BBX 14 24 2 0
BITMAP
0700
0F80
1DC0
38C0
0000
0000
FFF8
FFF8
FFF8
F000
F000
F000
F000
FFF0
FFF0
FFF0
F000
F000
F000
F000
F000
FFFC
FFFC
FFFC
ENDCHAR
STARTCHAR Edieresis
ENCODING 203
SWIDTH 667 0
DWIDTH 17 0
BBX 14 23 2 0
BITMAP
39C0
39C0
39C0
0000
0000
FFF8
FFF8
FFF8
F000
F000
F000
F000
FFF0
FFF0
FFF0
F000
F000
F000
F000
F000
FFFC
FFFC
FFFC
ENDCHAR
STARTCHAR Igrave
ENCODING 204
SWIDTH 278 0
DWIDTH 7 0
BBX 6 24 -1 0
BITMAP
F0
70
38
1C
00
00
1C
1C
1C
1C
1C
1C
1C
1C
1C
1C
1C
1C
1C
1C
1C
1C
1C
1C
ENDCHAR
STARTCHAR Iacute
ENCODING 205
SWIDTH 278 0
DWIDTH 7 0
BBX 6 24 2 0
BITMAP
3C
38
70
E0
00
00
E0
E0
E0
E0
E0
E0
E0
E0
E0
E0
E0
E0
E0
E0
E0
E0
E0
E0
ENDCHAR
STARTCHAR Icircumflex
ENCODING 206
SWIDTH 278 0
DWIDTH 7 0
BBX 9 24 -1 0
BITMAP
1C00
3E00
7700
E380
0000
0000
1C00
1C00
1C00
1C00
1C00
1C00
1C00
1C00
1C00
1C00
1C00
1C00
1C00
1C00
1C00
1C00
1C00
1C00
ENDCHAR
STARTCHAR Idieresis
ENCODING 207
SWIDTH 278 0
DWIDTH 7 0
BBX 8 23 -1 0
BITMAP
F7
F7
F7
00
00
1C
1C
1C
1C
1C
1C
1C
1C
1C
1C
1C
1C
1C
1C
1C
1C
1C
1C
ENDCHAR
STARTCHAR Eth
ENCODING 208
SWIDTH 722 0
DWIDTH 18 0
BBX 17 18 0 0
BITMAP
3FF800
3FFE00
3FFE00
3C1F00
3C0F00
3C0780
3C0780
FFC780
FFC780
FFC780
3C0780
3C0780
3C0780
3C0F00
3C1F00
3FFE00
3FFC00
3FF000
ENDCHAR
STARTCHAR Ntilde
ENCODING 209
SWIDTH 722 0
DWIDTH 18 0
BBX 14 23 2 0
BITMAP
0F20
1FE0
11C0
0000
0000
F01C
F81C
F81C
FC1C
FC1C
FE1C
EE1C
E71C
E79C
E39C
E3DC
E1DC
E1FC
E0FC
E07C
E07C
E03C
E03C
ENDCHAR
STARTCHAR Ograve
ENCODING 210
SWIDTH 778 0
DWIDTH 19 0
BBX 17 23 1 0
BITMAP
0F0000
078000
038000
01C000
000000
03F000
0FFC00
3FFE00
3E3F00
780F80
780780
F00780
F00780
F00380
F00380
F00380
F00780
780780
780F00
3E1F00
3FFE00
0FFC00
03F000
ENDCHAR
STARTCHAR Oacute
ENCODING 211
SWIDTH 778 0
DWIDTH 19 0
BBX 17 23 1 0
BITMAP
007800
007000
00E000
01C000
000000
03F000
0FFC00
3FFE00
3E3F00
780F80
780780
F00780
F00780
F00380
F00380
F00380
F00780
780780
780F00
3E1F00
3FFE00
0FFC00
03F000
ENDCHAR
STARTCHAR Ocircumflex
ENCODING 212
SWIDTH 778 0
DWIDTH 19 0
BBX 17 23 1 0
BITMAP
01E000
03E000
077000
0E3800
000000
03F000
0FFC00
3FFE00
3E3F00
780F80
780780
F00780
F00780
F00380
F00380
F00380
F00780
780780
780F00
3E1F00
3FFE00
0FFC00
03F000
ENDCHAR
STARTCHAR Otilde
ENCODING 213
SWIDTH 778 0
DWIDTH 19 0
BBX 17 23 1 0
BITMAP
038800
07F800
0CF000
000000
000000
03F000
0FFC00
3FFE00
3E3F00
780F80
780780
F00780
F00780
F00380
F00380
F00380
F00780
780780
780F00
3E1F00
3FFE00
0FFC00
03F000
ENDCHAR
STARTCHAR Odieresis
ENCODING 214
SWIDTH 778 0
DWIDTH 19 0
BBX 17 23 1 0
BITMAP
073800
073800
073800
000000
000000
03F000
0FFC00
3FFE00
3E3F00
780F80
780780
F00780
F00780
F00380
F00380
F00380
F00780
780780
780F00
3E1F00
3FFE00
0FFC00
03F000
ENDCHAR
STARTCHAR multiply
ENCODING 215
SWIDTH 584 0
DWIDTH 15 0
BBX 12 12 1 0
BITMAP
6030
F070
78E0
3DC0
1F80
0F00
0F80
1FC0
39E0
70F0
E070
4020
ENDCHAR
STARTCHAR Oslash
ENCODING 216
SWIDTH 778 0
DWIDTH 19 0
BBX 17 18 1 0
BITMAP
03F080
0FFD80
3FFF00
3E3F00
780F80
781F80
F03780
F06780
F0C380
F18380
F30380
F60780
7C0780
780F00
3E1F00
7FFE00
4FFC00
C3F000
ENDCHAR
STARTCHAR Ugrave
ENCODING 217
SWIDTH 722 0
DWIDTH 18 0
BBX 14 24 2 0
BITMAP
3C00
1E00
0F00
0700
0000
0000
F03C
F03C
F03C
F03C
F03C
F03C
F03C
F03C
F03C
F03C
F03C
F03C
F03C
F03C
F87C
7FF8
3FF0
0FC0
ENDCHAR
STARTCHAR Uacute
ENCODING 218
SWIDTH 722 0
DWIDTH 18 0
BBX 14 24 2 0
BITMAP
00F0
01E0
01C0
0380
0000
0000
F03C
F03C
F03C
F03C
F03C
F03C
F03C
F03C
F03C
F03C
F03C
F03C
F03C
F03C
F87C
7FF8
3FF0
0FC0
ENDCHAR
STARTCHAR Ucircumflex
ENCODING 219
SWIDTH 722 0
DWIDTH 18 0
BBX 14 24 2 0
BITMAP
0780
07C0
0FC0
1CE0
0000
0000
F03C
F03C
F03C
F03C
F03C
F03C
F03C
F03C
F03C
F03C
F03C
F03C
F03C
F03C
F87C
7FF8
3FF0
0FC0
ENDCHAR
STARTCHAR Udieresis
ENCODING 220
SWIDTH 722 0
DWIDTH 18 0
BBX 14 23 2 0
BITMAP
1CE0
1CE0
1CE0
0000
0000
F03C
F03C
F03C
F03C
F03C
F03C
F03C
F03C
F03C
F03C
F03C
F03C
F03C
F03C
F87C
7FF8
3FF0
0FC0
ENDCHAR
STARTCHAR Yacute
ENCODING 221
SWIDTH 667 0
DWIDTH 17 0
BBX 15 24 1 0
BITMAP
00F0
01E0
01C0
0380
0000
0000
F01E
F83E
783C
7878
3C78
3C70
1EF0
1EE0
0FE0
07C0
07C0
0380
0380
0380
0380
0380
0380
0380
ENDCHAR
STARTCHAR Thorn
ENCODING 222
SWIDTH 667 0
DWIDTH 17 0
BBX 14 18 2 0
BITMAP
F000
F000
FFE0
FFF0
FFF8
F078
F03C
F03C
F03C
F038
F078
FFF8
FFF0
FFC0
F000
F000
F000
F000
ENDCHAR
STARTCHAR germandbls
ENCODING 223
SWIDTH 611 0
DWIDTH 15 0
BBX 12 18 2 0
BITMAP
1F80
7FC0
FFE0
F1E0
E0E0
E0E0
E1E0
E7C0
E7E0
E7F0
E0F0
E070
E070
E070
E0F0
E7F0
E7E0
E780
ENDCHAR
STARTCHAR agrave
ENCODING 224
SWIDTH 556 0
DWIDTH 14 0
BBX 12 19 1 0
BITMAP
3800
1C00
0E00
0600
0000
1F80
7FE0
7FE0
F0E0
F0E0
01E0
3FE0
7EE0
F0E0
E0E0
E1E0
FFE0
FFF0
3CF0
ENDCHAR
STARTCHAR aacute
ENCODING 225
SWIDTH 556 0
DWIDTH 14 0
BBX 12 19 1 0
BITMAP
01C0
0380
0700
0600
0000
1F80
7FE0
7FE0
F0E0
F0E0
01E0
3FE0
7EE0
F0E0
E0E0
E1E0
FFE0
FFF0
3CF0
ENDCHAR
STARTCHAR acircumflex
ENCODING 226
SWIDTH 556 0
DWIDTH 14 0
BBX 12 19 1 0
BITMAP
0F00
1F80
3980
31C0
0000
1F80
7FE0
7FE0
F0E0
F0E0
01E0
3FE0
7EE0
F0E0
E0E0
E1E0
FFE0
FFF0
3CF0
ENDCHAR
STARTCHAR atilde
ENCODING 227
SWIDTH 556 0
DWIDTH 14 0
BBX 12 18 1 0
BITMAP
1C40
3FC0
2380
0000
1F80
7FE0
7FE0
F0E0
F0E0
01E0
3FE0
7EE0
F0E0
E0E0
E1E0
FFE0
FFF0
3CF0
ENDCHAR
STARTCHAR adieresis
ENCODING 228
SWIDTH 556 0
DWIDTH 14 0
BBX 12 18 1 0
BITMAP
39C0
39C0
39C0
0000
1F80
7FE0
7FE0
F0E0
F0E0
01E0
3FE0
7EE0
F0E0
E0E0
E1E0
FFE0
FFF0
3CF0
ENDCHAR
STARTCHAR aring
ENCODING 229
SWIDTH 556 0
DWIDTH 14 0
BBX 12 20 1 0
BITMAP
0700
0F00
1980
1980
0F00
0000
1F80
7FE0
7FE0
F0E0
F0E0
01E0
3FE0
7EE0
F0E0
E0E0
E1E0
FFE0
FFF0
3CF0
ENDCHAR
STARTCHAR ae
ENCODING 230
SWIDTH 889 0
DWIDTH 22 0
BBX 20 14 1 0
BITMAP
1F8F80
3FFFC0
7FFFE0
F0F0F0
F0F070
01E070
3FFFF0
7FFFF0
F0E000
E0F000
E0F0F0
FFFFE0
FFBFE0
3E1F80
ENDCHAR
STARTCHAR ccedilla
ENCODING 231
SWIDTH 556 0
DWIDTH 14 0
BBX 12 19 1 -5
BITMAP
0F80
3FE0
7FE0
78F0
F0F0
F000
E000
E000
F000
F0F0
F0F0
7FE0
3FC0
1F80
0C00
0F00
0300
0300
1F00
ENDCHAR
STARTCHAR egrave
ENCODING 232
SWIDTH 556 0
DWIDTH 14 0
BBX 12 19 1 0
BITMAP
3800
1C00
0E00
0600
0000
1F80
3FC0
7FE0
F0F0
E0F0
E070
FFF0
FFF0
E000
E000
F0F0
7FE0
3FC0
1F80
ENDCHAR
STARTCHAR eacute
ENCODING 233
SWIDTH 556 0
DWIDTH 14 0
BBX 12 19 1 0
BITMAP
01C0
0380
0700
0600
0000
1F80
3FC0
7FE0
F0F0
E0F0
E070
FFF0
FFF0
E000
E000
F0F0
7FE0
3FC0
1F80
ENDCHAR
STARTCHAR ecircumflex
ENCODING 234
SWIDTH 556 0
DWIDTH 14 0
BBX 12 19 1 0
BITMAP
0F00
1F80
3980
31C0
0000
1F80
3FC0
7FE0
F0F0
E0F0
E070
FFF0
FFF0
E000
E000
F0F0
7FE0
3FC0
1F80
ENDCHAR
STARTCHAR edieresis
ENCODING 235
SWIDTH 556 0
DWIDTH 14 0
BBX 12 18 1 0
BITMAP
39C0
39C0
39C0
0000
1F80
3FC0
7FE0
F0F0
E0F0
E070
FFF0
FFF0
E000
E000
F0F0
7FE0
3FC0
1F80
ENDCHAR
STARTCHAR igrave
ENCODING 236
SWIDTH 278 0
DWIDTH 7 0
BBX 6 20 -1 0
BITMAP
F0
70
38
1C
00
00
1C
1C
1C
1C
1C
1C
1C
1C
1C
1C
1C
1C
1C
1C
ENDCHAR
STARTCHAR iacute
ENCODING 237
SWIDTH 278 0
DWIDTH 7 0
BBX 6 20 2 0
BITMAP
3C
38
70
E0
00
00
E0
E0
E0
E0
E0
E0
E0
E0
E0
E0
E0
E0
E0
E0
ENDCHAR
STARTCHAR icircumflex
ENCODING 238
SWIDTH 278 0
DWIDTH 7 0
BBX 9 20 -1 0
BITMAP
1C00
3E00
7700
E380
0000
0000
1C00
1C00
1C00
1C00
1C00
1C00
1C00
1C00
1C00
1C00
1C00
1C00
1C00
1C00
ENDCHAR
STARTCHAR idieresis
ENCODING 239
SWIDTH 278 0
DWIDTH 7 0
BBX 8 18 -1 0
BITMAP
F7
F7
F7
00
1C
1C
1C
1C
1C
1C
1C
1C
1C
1C
1C
1C
1C
1C
ENDCHAR
STARTCHAR eth
ENCODING 240
SWIDTH 611 0
DWIDTH 15 0
BBX 13 18 1 0
BITMAP
0660
0FF0
07C0
1FE0
00F0
0F70
3FF8
7FF8
F8F8
F078
F038
E038
F038
F078
7878
7FF0
3FE0
0F80
ENDCHAR
STARTCHAR ntilde
ENCODING 241
SWIDTH 611 0
DWIDTH 15 0
BBX 12 18 2 0
BITMAP
1CC0
3FC0
6780
0000
E780
EFE0
FFE0
F1F0
E0F0
E0F0
E0F0
E0F0
E0F0
E0F0
E0F0
E0F0
E0F0
E0F0
ENDCHAR
STARTCHAR ograve
ENCODING 242
SWIDTH 611 0
DWIDTH 15 0
BBX 13 19 1 0
BITMAP
3C00
1E00
0E00
0700
0000
0FC0
3FE0
7FF0
78F8
F078
F038
E038
E038
F038
F078
7878
7FF0
3FE0
0F80
ENDCHAR
STARTCHAR oacute
ENCODING 243
SWIDTH 611 0
DWIDTH 15 0
BBX 13 19 1 0
BITMAP
01E0
01C0
0380
0700
0000
0FC0
3FE0
7FF0
78F8
F078
F038
E038
E038
F038
F078
7878
7FF0
3FE0
0F80
ENDCHAR
STARTCHAR ocircumflex
ENCODING 244
SWIDTH 611 0
DWIDTH 15 0
BBX 13 19 1 0
BITMAP
0780
0F80
1DC0
38E0
0000
0FC0
3FE0
7FF0
78F8
F078
F038
E038
E038
F038
F078
7878
7FF0
3FE0
0F80
ENDCHAR
STARTCHAR otilde
ENCODING 245
SWIDTH 611 0
DWIDTH 15 0
BBX 13 18 1 0
BITMAP
0E60
1FE0
33C0
0000
0FC0
3FE0
7FF0
78F8
F078
F038
E038
E038
F038
F078
7878
7FF0
3FE0
0F80
ENDCHAR
STARTCHAR odieresis
ENCODING 246
SWIDTH 611 0
DWIDTH 15 0
BBX 13 18 1 0
BITMAP
1DE0
1DE0
1DE0
0000
0FC0
3FE0
7FF0
78F8
F078
F038
E038
E038
F038
F078
7878
7FF0
3FE0
0F80
ENDCHAR
STARTCHAR divide
ENCODING 247
SWIDTH 584 0
DWIDTH 15 0
BBX 13 14 1 -1
BITMAP
0700
0F80
0F00
0700
0000
FFF8
FFF8
FFF8
0000
0000
0700
0F80
0F00
0700
ENDCHAR
STARTCHAR oslash
ENCODING 248
SWIDTH 611 0
DWIDTH 15 0
BBX 14 14 1 0
BITMAP
0F8C
3FF8
7FF0
78F8
F0F8
F1B8
E338
E638
FC38
F878
F878
7FF0
7FE0
8F80
ENDCHAR
STARTCHAR ugrave
ENCODING 249
SWIDTH 611 0
DWIDTH 15 0
BBX 12 20 2 0
BITMAP
7800
3800
1C00
0E00
0000
0000
E0F0
E0F0
E0F0
E0F0
E0F0
E0F0
E0F0
E0F0
E0F0
E0F0
F1F0
FFF0
7FF0
3CF0
ENDCHAR
STARTCHAR uacute
ENCODING 250
SWIDTH 611 0
DWIDTH 15 0
BBX 12 20 2 0
BITMAP
03C0
0380
0700
0E00
0000
0000
E0F0
E0F0
E0F0
E0F0
E0F0
E0F0
E0F0
E0F0
E0F0
E0F0
F1F0
FFF0
7FF0
3CF0
ENDCHAR
STARTCHAR ucircumflex
ENCODING 251
SWIDTH 611 0
DWIDTH 15 0
BBX 12 20 2 0
BITMAP
0E00
1F00
3B80
31C0
0000
0000
E0F0
E0F0
E0F0
E0F0
E0F0
E0F0
E0F0
E0F0
E0F0
E0F0
F1F0
FFF0
7FF0
3CF0
ENDCHAR
STARTCHAR udieresis
ENCODING 252
SWIDTH 611 0
DWIDTH 15 0
BBX 12 18 2 0
BITMAP
3BC0
3BC0
3BC0
0000
E0F0
E0F0
E0F0
E0F0
E0F0
E0F0
E0F0
E0F0
E0F0
E0F0
F1F0
FFF0
7FF0
3CF0
ENDCHAR
STARTCHAR yacute
ENCODING 253
SWIDTH 556 0
DWIDTH 14 0
BBX 13 25 0 -5
BITMAP
00F0
01E0
03C0
0380
0000
0000
F038
7878
7878
7870
3870
3CF0
3CE0
1CE0
1FE0
0FC0
0FC0
0FC0
0780
0780
0780
0700
3F00
3E00
3C00
ENDCHAR
STARTCHAR thorn
ENCODING 254
SWIDTH 611 0
DWIDTH 15 0
BBX 12 23 2 -5
BITMAP
E000
E000
E000
E000
E780
EFE0
FFE0
F1F0
E0F0
E070
E070
E070
E070
E0F0
F0F0
FFE0
FFE0
E780
E000
E000
E000
E000
E000
ENDCHAR
STARTCHAR ydieresis
ENCODING 255
SWIDTH 556 0
DWIDTH 14 0
BBX 13 23 0 -5
BITMAP
1CE0
1CE0
1CE0
0000
F038
7878
7878
7870
3870
3CF0
3CE0
1CE0
1FE0
0FC0
0FC0
0FC0
0780
0780
0780
0700
3F00
3E00
3C00
ENDCHAR
STARTCHAR dotlessi
ENCODING 305
SWIDTH 278 0
DWIDTH 7 0
BBX 3 14 2 0
BITMAP
E0
E0
E0
E0
E0
E0
E0
E0
E0
E0
E0
E0
E0
E0
ENDCHAR
STARTCHAR Lslash
ENCODING 321
SWIDTH 611 0
DWIDTH 15 0
BBX 15 18 0 0
BITMAP
3C00
3C00
3C00
3C00
3C80
3F80
3F00
3C00
7C00
FC00
BC00
3C00
3C00
3C00
3C00
3FFE
3FFE
3FFE
ENDCHAR
STARTCHAR lslash
ENCODING 322
SWIDTH 278 0
DWIDTH 7 0
BBX 7 18 0 0
BITMAP
38
38
38
38
38
3A
3E
3C
78
F8
B8
38
38
38
38
38
38
38
ENDCHAR
STARTCHAR OE
ENCODING 338
SWIDTH 1000 0
DWIDTH 25 0
BBX 23 18 1 0
BITMAP
07DFFE
1FFFFE
3FFFFE
7C3E00
781E00
F01E00
F01E00
F01FFC
F01FFC
F01FFC
F01E00
F01E00
F01E00
781E00
7C3E00
3FFFFE
1FFFFE
07DFFE
ENDCHAR
STARTCHAR oe
ENCODING 339
SWIDTH 944 0
DWIDTH 24 0
BBX 22 14 1 0
BITMAP
0F87C0
3FEFF0
7FFFF8
78FC78
F07838
F0383C
E03FFC
E03FFC
F03800
F07800
787C38
7FFFF8
3FFFF0
0F87C0
ENDCHAR
STARTCHAR Scaron
ENCODING 352
SWIDTH 667 0
DWIDTH 17 0
BBX 15 23 1 0
BITMAP
1C60
0EE0
07C0
0380
0000
0FC0
3FF0
7FF8
787C
F03C
F01C
F800
7F80
7FF0
1FFC
01FC
003E
F01E
F01E
F83C
7FFC
3FF8
0FE0
ENDCHAR
STARTCHAR scaron
ENCODING 353
SWIDTH 556 0
DWIDTH 14 0
BBX 12 19 1 0
BITMAP
39C0
1F80
1F00
0F00
0000
1F80
7FC0
7FE0
F0F0
F000
FF00
7FE0
1FF0
01F0
E0F0
F0F0
FFE0
7FE0
1F80
ENDCHAR
STARTCHAR Ydieresis
ENCODING 376
SWIDTH 667 0
DWIDTH 17 0
BBX 15 23 1 0
BITMAP
1CE0
1CE0
1CE0
0000
0000
F01E
F83E
783C
7878
3C78
3C70
1EF0
1EE0
0FE0
07C0
07C0
0380
0380
0380
0380
0380
0380
0380
ENDCHAR
STARTCHAR Zcaron
ENCODING 381
SWIDTH 611 0
DWIDTH 15 0
BBX 14 24 1 0
BITMAP
38E0
1DC0
0F80
0780
0000
0000
FFFC
FFFC
FFFC
0078
00F0
01F0
03E0
07C0
0780
0F00
1F00
3E00
7C00
7800
F000
FFFC
FFFC
FFFC
ENDCHAR
STARTCHAR zcaron
ENCODING 382
SWIDTH 500 0
DWIDTH 13 0
BBX 12 20 0 0
BITMAP
38E0
1DC0
1F80
0F00
0000
0000
7FF0
7FF0
7FF0
01E0
03C0
07C0
0F80
0F00
1E00
3C00
7C00
FFF0
FFF0
FFF0
ENDCHAR
STARTCHAR florin
ENCODING 402
SWIDTH 556 0
DWIDTH 14 0
BBX 13 23 0 -5
BITMAP
00F8
01F8
03F0
03C0
0380
0380
0780
3FF0
3FF0
0700
0700
0700
0F00
0F00
0F00
0E00
0E00
1E00
1E00
1E00
FC00
F800
F000
ENDCHAR
STARTCHAR circumflex
ENCODING 710
SWIDTH 333 0
DWIDTH 8 0
BBX 8 4 0 15
BITMAP
3C
3E
76
E7
ENDCHAR
STARTCHAR caron
ENCODING 711
SWIDTH 333 0
DWIDTH 8 0
BBX 8 4 0 15
BITMAP
E3
67
7E
3C
ENDCHAR
STARTCHAR breve
ENCODING 728
SWIDTH 333 0
DWIDTH 8 0
BBX 8 4 0 15
BITMAP
C1
C3
7F
3C
ENDCHAR
STARTCHAR dotaccent
ENCODING 729
SWIDTH 333 0
DWIDTH 8 0
BBX 3 3 3 15
BITMAP
E0
E0
E0
ENDCHAR
STARTCHAR ring
ENCODING 730
SWIDTH 333 0
DWIDTH 8 0
BBX 6 5 1 14
BITMAP
78
4C
CC
6C
38
ENDCHAR
STARTCHAR ogonek
ENCODING 731
SWIDTH 333 0
DWIDTH 8 0
BBX 5 5 2 -5
BITMAP
70
E0
C0
C0
F8
ENDCHAR
STARTCHAR tilde
ENCODING 732
SWIDTH 333 0
DWIDTH 8 0
BBX 9 3 0 15
BITMAP
7180
FF00
CE00
ENDCHAR
STARTCHAR hungarumlaut
ENCODING 733
SWIDTH 333 0
DWIDTH 8 0
BBX 11 4 1 15
BITMAP
79E0
71C0
E380
C700
ENDCHAR
STARTCHAR endash
ENCODING 8211
SWIDTH 556 0
DWIDTH 14 0
BBX 14 3 0 5
BITMAP
FFFC
FFFC
FFFC
ENDCHAR
STARTCHAR emdash
ENCODING 8212
SWIDTH 1000 0
DWIDTH 25 0
BBX 25 3 0 5
BITMAP
FFFFFF80
FFFFFF80
FFFFFF80
ENDCHAR
STARTCHAR quoteleft
ENCODING 8216
SWIDTH 278 0
DWIDTH 7 0
BBX 3 7 2 11
BITMAP
20
60
C0
80
E0
E0
E0
ENDCHAR
STARTCHAR quoteright
ENCODING 8217
SWIDTH 278 0
DWIDTH 7 0
BBX 3 7 2 11
BITMAP
E0
E0
E0
20
60
C0
80
ENDCHAR
STARTCHAR quotesinglbase
ENCODING 8218
SWIDTH 278 0
DWIDTH 7 0
BBX 3 6 2 -3
BITMAP
E0
E0
E0
20
60
C0
ENDCHAR
STARTCHAR quotedblleft
ENCODING 8220
SWIDTH 500 0
DWIDTH 13 0
BBX 9 7 2 11
BITMAP
2180
E300
8200
8600
E780
E780
E780
ENDCHAR
STARTCHAR quotedblright
ENCODING 8221
SWIDTH 500 0
DWIDTH 13 0
BBX 9 7 2 11
BITMAP
E780
E780
E780
2180
6180
C300
8600
ENDCHAR
STARTCHAR quotedblbase
ENCODING 8222
SWIDTH 500 0
DWIDTH 13 0
BBX 9 7 2 -4
BITMAP
E780
E780
E780
6180
6180
C300
0600
ENDCHAR
STARTCHAR dagger
ENCODING 8224
SWIDTH 556 0
DWIDTH 14 0
BBX 12 22 1 -4
BITMAP
0F00
0F00
0F00
0F00
0F00
FFF0
FFF0
FFF0
0F00
0F00
0F00
0F00
0F00
0F00
0F00
0F00
0F00
0F00
0F00
0F00
0F00
0F00
ENDCHAR
STARTCHAR daggerdbl
ENCODING 8225
SWIDTH 556 0
DWIDTH 14 0
BBX 12 22 1 -4
BITMAP
0F00
0F00
0F00
0F00
0F00
FFF0
FFF0
FFF0
0F00
0F00
0F00
0F00
0F00
0F00
FFF0
FFF0
FFF0
0F00
0F00
0F00
0F00
0F00
ENDCHAR
STARTCHAR bullet
ENCODING 8226
SWIDTH 350 0
DWIDTH 9 0
BBX 8 8 0 5
BITMAP
3C
7F
7F
FF
FF
FF
7F
3E
ENDCHAR
STARTCHAR ellipsis
ENCODING 8230
SWIDTH 1000 0
DWIDTH 25 0
BBX 21 4 2 0
BITMAP
F07078
F07078
F07078
F07078
ENDCHAR
STARTCHAR perthousand
ENCODING 8240
SWIDTH 1000 0
DWIDTH 25 0
BBX 25 18 0 0
BITMAP
3C080000
7E180000
FF100000
E7300000
E7600000
FF600000
7EC00000
3CC00000
01800000
01800000
033C1E00
027E3F00
06FF7F80
04C77380
0CE77380
18FF7F80
187E3F00
303C1E00
ENDCHAR
STARTCHAR guilsinglleft
ENCODING 8249
SWIDTH 333 0
DWIDTH 8 0
BBX 4 10 2 2
BITMAP
10
30
70
E0
C0
C0
E0
70
30
10
ENDCHAR
STARTCHAR guilsinglright
ENCODING 8250
SWIDTH 333 0
DWIDTH 8 0
BBX 4 10 2 2
BITMAP
80
C0
E0
70
30
30
70
E0
C0
80
ENDCHAR
STARTCHAR fraction
ENCODING 8260
SWIDTH 167 0
DWIDTH 4 0
BBX 12 18 -4 0
BITMAP
0030
0030
0060
00C0
00C0
0180
0180
0300
0600
0600
0C00
0C00
1800
3000
3000
6000
6000
C000
ENDCHAR
STARTCHAR trademark
ENCODING 8482
SWIDTH 1000 0
DWIDTH 25 0
BBX 23 10 1 8
BITMAP
FF9E1E
FF9E1E
1C1E3E
1C1F3E
1C1B7E
1C1B6E
1C1BEE
1C19EE
1C19CE
1C19CE
ENDCHAR
STARTCHAR minus
ENCODING 8722
SWIDTH 584 0
DWIDTH 15 0
BBX 13 3 1 5
BITMAP
FFF8
FFF8
FFF8
ENDCHAR
STARTCHAR fi
ENCODING 64257
SWIDTH 611 0
DWIDTH 15 0
BBX 14 18 0 0
BITMAP
0F3C
1F3C
3F3C
3C00
FF3C
FF3C
3F3C
3C3C
3C3C
3C3C
3C3C
3C3C
3C3C
3C3C
3C3C
3C3C
3C3C
3C3C
ENDCHAR
STARTCHAR fl
ENCODING 64258
SWIDTH 611 0
DWIDTH 15 0
BBX 14 18 0 0
BITMAP
0F3C
1F3C
3F3C
3C3C
FF3C
FF3C
3F3C
3C3C
3C3C
3C3C
3C3C
3C3C
3C3C
3C3C
3C3C
3C3C
3C3C
3C3C
ENDCHAR
STARTCHAR .notdef
ENCODING -1
SWIDTH 278 0
DWIDTH 7 0
BBX 1 1 0 0
BITMAP
00
ENDCHAR
ENDFONT
